<?xml version="1.0" encoding="UTF-8"?>
<svg width="752pt" height="752pt" version="1.1" viewBox="0 0 752 752" xmlns="http://www.w3.org/2000/svg">
 <g>
  <path d="m367.43 380.74h196.57c2.6133 0 4.7344-2.1211 4.7344-4.7344 0-58.449-23.699-111.46-61.992-149.95-0.125-0.15234-0.17969-0.33984-0.3125-0.47266-0.13281-0.13281-0.32031-0.19922-0.47266-0.3125-38.484-38.293-91.504-61.992-149.95-61.992s-111.47 23.707-149.96 62c-0.15234 0.11328-0.33203 0.17187-0.46484 0.3125-0.13281 0.14062-0.19922 0.32031-0.3125 0.46484-38.297 38.48-62.004 91.5-62.004 149.95s23.699 111.46 61.98 149.95c0.125 0.16016 0.1875 0.33984 0.33203 0.49219 0.14062 0.15234 0.33203 0.19922 0.49219 0.32031 38.484 38.285 91.496 61.98 149.94 61.98 56.848 0 110.27-22.125 150.43-62.305 1.8477-1.8477 1.8477-4.8477 0-6.6953zm-214.46 0h24.324c1.2031 45.746 19.605 87.215 49.043 118.23l-17.191 17.191c-33.832-35.418-54.961-82.965-56.176-135.42zm56.168-144.89 17.191 17.191c-29.43 31.02-47.832 72.477-49.043 118.23l-24.316-0.003906c1.2148-52.453 22.344-99.992 56.168-135.41zm349.87 135.41h-24.324c-1.2031-45.746-19.605-87.207-49.035-118.23l17.18-17.191c33.848 35.426 54.957 82.965 56.18 135.42zm-198.28-164.49c43.145 1.2031 82.234 18.547 111.53 46.27l-111.53 111.53zm-9.4727 157.8-111.54-111.54c29.305-27.715 68.395-45.055 111.54-46.258zm-6.6953 6.6953h-157.8c1.2031-43.145 18.547-82.234 46.258-111.54zm0 9.4727-111.54 111.54c-27.723-29.305-45.066-68.402-46.27-111.54zm6.6953 6.6953v157.8c-43.133-1.2031-82.234-18.547-111.53-46.258zm9.4727 0 111.57 111.59c-30.434 28.812-69.672 45.074-111.57 46.223zm118.22-127.7c27.715 29.305 45.055 68.395 46.258 111.53h-157.79zm0-13.395c-31.02-29.438-72.477-47.84-118.23-49.043v-24.324c52.453 1.2109 99.992 22.344 135.41 56.176zm-127.7-49.043c-45.746 1.2031-87.215 19.605-118.23 49.043l-17.191-17.191c35.434-33.832 82.961-54.953 135.41-56.176zm-118.23 308.36c31.02 29.43 72.477 47.84 118.23 49.043v24.324c-52.453-1.2227-99.992-22.336-135.41-56.176zm127.7 49.051c44.422-1.1562 86.051-18.395 118.27-48.996l17.199 17.199c-36.809 35.188-84.543 54.953-135.48 56.121l-0.003906-24.324z"/>
  <path d="m226.25 339.56c8.1836 0 14.832-6.6602 14.832-14.832 0-8.1758-6.6602-14.832-14.832-14.832-8.1758 0-14.832 6.6602-14.832 14.832 0 8.1758 6.6602 14.832 14.832 14.832zm0-20.191c2.9648 0 5.3594 2.4062 5.3594 5.3594 0 2.957-2.4062 5.3594-5.3594 5.3594-2.957 0-5.3594-2.4062-5.3594-5.3594s2.4062-5.3594 5.3594-5.3594z"/>
  <path d="m280.25 422.7c8.8281 0 16.008-7.1797 16.008-15.996 0-8.8164-7.1797-15.996-16.008-15.996-8.8164 0-15.988 7.1797-15.988 15.996 0 8.8164 7.1602 15.996 15.988 15.996zm0-22.531c3.5977 0 6.5352 2.9375 6.5352 6.5273s-2.9375 6.5273-6.5352 6.5273c-3.5898 0-6.5156-2.9375-6.5156-6.5273s2.9141-6.5273 6.5156-6.5273z"/>
  <path d="m331.13 445.06c-8.1836 0-14.832 6.6602-14.832 14.832 0 8.1914 6.6602 14.852 14.832 14.852 8.1758 0 14.832-6.6602 14.832-14.852 0.011718-8.1719-6.6484-14.832-14.832-14.832zm0 20.223c-2.9648 0-5.3594-2.4141-5.3594-5.3789s2.4062-5.3594 5.3594-5.3594c2.957 0 5.3594 2.4062 5.3594 5.3594 0.011718 2.9648-2.3945 5.3789-5.3594 5.3789z"/>
  <path d="m389.01 492.45c-9.2461 0-16.766 7.5312-16.766 16.773 0 9.2461 7.5195 16.773 16.766 16.773 9.2539 0 16.773-7.5312 16.773-16.773 0-9.2422-7.5234-16.773-16.773-16.773zm0 24.09c-4.0273 0-7.3008-3.2773-7.3008-7.3008 0-4.0273 3.2773-7.3008 7.3008-7.3008 4.0352 0 7.3008 3.2773 7.3008 7.3008 0 4.0234-3.2695 7.3008-7.3008 7.3008z"/>
  <path d="m476.42 309.9c-8.6094 0-15.609 7.0078-15.609 15.617s7 15.609 15.609 15.609 15.609-7 15.609-15.609c0-8.6172-7-15.617-15.609-15.617zm0 21.758c-3.3828 0-6.1367-2.7578-6.1367-6.1367 0-3.3906 2.7578-6.1484 6.1367-6.1484 3.3828 0 6.1367 2.7656 6.1367 6.1484 0.003906 3.3789-2.7539 6.1367-6.1367 6.1367z"/>
  <path d="m396 271.05c-8.8164 0-15.988 7.1797-15.988 15.996 0 8.8164 7.1719 15.996 15.988 15.996 8.8281 0 15.996-7.1797 15.996-15.996 0.011718-8.8164-7.168-15.996-15.996-15.996zm0 22.531c-3.5898 0-6.5156-2.9258-6.5156-6.5273 0-3.5977 2.9258-6.5273 6.5156-6.5273 3.5977 0 6.5273 2.9258 6.5273 6.5273 0.007812 3.6016-2.9297 6.5273-6.5273 6.5273z"/>
  <path d="m301.61 284.41c8.3164 0 14.832-8.2227 14.832-18.727 0-10.496-6.5156-18.715-14.832-18.715s-14.832 8.2227-14.832 18.715c0.011718 10.508 6.5273 18.727 14.832 18.727zm0-27.969c2.5273 0 5.3594 3.9492 5.3594 9.2461 0 5.293-2.832 9.2539-5.3594 9.2539s-5.3594-3.9492-5.3594-9.2539c0.011719-5.2891 2.832-9.2461 5.3594-9.2461z"/>
  <path d="m216.17 393.8c-2.6133 0-4.7344 2.1211-4.7344 4.7344v32.629c0 2.6133 2.1211 4.7344 4.7344 4.7344s4.7344-2.1211 4.7344-4.7344v-32.629c0-2.6094-2.1211-4.7344-4.7344-4.7344z"/>
  <path d="m275.84 359.86c0.73047 1.8672 2.5195 3.0117 4.4062 3.0117 0.57812 0 1.1641-0.10547 1.7227-0.33203 2.4336-0.95703 3.6367-3.7031 2.6797-6.1289l-11.254-28.746c-0.95703-2.4336-3.7109-3.6758-6.1289-2.6797-2.4336 0.95703-3.6367 3.7031-2.6797 6.1289z"/>
  <path d="m306.98 304c0.13281 2.5273 2.2266 4.4883 4.7266 4.4883h0.25391l29.523-1.5547c2.6055-0.14062 4.6133-2.3672 4.4805-4.9805-0.14062-2.6133-2.3398-4.7188-4.9805-4.4805l-29.523 1.5547c-2.6055 0.12891-4.6133 2.3672-4.4805 4.9727z"/>
  <path d="m301.15 463.14c-1.2227-2.3125-4.082-3.1914-6.4023-1.9805-2.3125 1.2227-3.2031 4.0898-1.9805 6.4023l14.758 27.969c0.85156 1.6094 2.4922 2.5273 4.1953 2.5273 0.75 0 1.4961-0.17969 2.207-0.55078 2.3125-1.2227 3.2031-4.0898 1.9805-6.4023z"/>
  <path d="m422.82 475.23-24.477-13.988c-2.2461-1.2695-5.1602-0.51953-6.4688 1.7695-1.2969 2.2656-0.51172 5.1602 1.7695 6.4688l24.477 13.988c0.73828 0.41797 1.543 0.61719 2.3477 0.61719 1.6367 0 3.2383-0.86328 4.1211-2.3867 1.2969-2.2734 0.51172-5.1719-1.7695-6.4688z"/>
  <path d="m438.83 330.89-20.98 13.98c-2.168 1.4492-2.7656 4.3867-1.3164 6.5625 0.91797 1.375 2.4141 2.1133 3.9414 2.1133 0.91016 0 1.8203-0.25391 2.625-0.79688l20.98-13.98c2.168-1.4492 2.7656-4.3867 1.3164-6.5625-1.4609-2.1758-4.418-2.7539-6.5664-1.3164z"/>
  <path d="m418.93 253.68-13.988-20.203c-1.4883-2.1602-4.4688-2.6797-6.582-1.1953-2.1602 1.4883-2.6914 4.4414-1.2031 6.5938l13.988 20.203c0.91797 1.3242 2.3945 2.0352 3.8945 2.0352 0.9375 0 1.875-0.27344 2.6914-0.84375 2.1562-1.4844 2.6875-4.4414 1.1992-6.5898z"/>
  <path d="m604 387.06h-208.01c-0.61719 0-1.2305 0.13281-1.8086 0.35938-1.1562 0.48438-2.082 1.4023-2.5664 2.5664-0.47266 1.1641-0.47266 2.4609 0 3.6289 0.23828 0.57812 0.59766 1.0977 1.0312 1.543l147.07 147.07c0.92969 0.92969 2.1406 1.3828 3.3516 1.3828s2.4258-0.46484 3.3516-1.3828c40.18-40.18 62.305-93.609 62.305-150.44 0.003906-2.6094-2.1094-4.7344-4.7305-4.7344zm-38.77 9.4727c-1.1445 41.902-17.41 81.152-46.223 111.59l-111.58-111.59zm-39.516 118.28c30.594-32.223 47.84-73.852 48.996-118.28h24.324c-1.1641 50.93-20.934 98.664-56.121 135.49z"/>
  <path d="m460.49 406.51c-8.1758 0-14.832 6.6484-14.832 14.812 0 8.1758 6.6602 14.832 14.832 14.832 8.1758 0 14.832-6.6602 14.832-14.832 0-8.1602-6.6562-14.812-14.832-14.812zm0 20.188c-2.9648 0-5.3594-2.4062-5.3594-5.3594 0-2.957 2.4062-5.3438 5.3594-5.3438 2.957 0 5.3594 2.3945 5.3594 5.3438 0 2.9531-2.4023 5.3594-5.3594 5.3594z"/>
  <path d="m525.18 451.36c2.4336-0.97656 3.6094-3.7305 2.6328-6.1484-0.97656-2.4141-3.7422-3.6094-6.1484-2.6328l-31.078 12.438c-2.4336 0.97656-3.6094 3.7305-2.6328 6.1484 0.73828 1.8477 2.5195 2.9727 4.3945 2.9727 0.58594 0 1.1836-0.11328 1.7617-0.33984z"/>
 </g>
</svg>
